<svg version="1.1" xmlns="http://www.w3.org/2000/svg" xmlns:xlink="http://www.w3.org/1999/xlink" x="0px" y="0px" viewBox="0 0 1000 1000" enable-background="new 0 0 1000 1000" xml:space="preserve">
<g transform="translate(0.000000,451.000000) scale(0.100000,-0.082000)"><path d="M1290.2,481.2v-4528.8h-259.8H770.5v-371.2V-4790h2914h2914v371.2v371.2h-259.9h-259.8v2101.1V150.8l189.3-100.2c360.1-200.5,345.3-126.2,367.5-1759.6l18.6-1429.2l103.9-196.7c219-415.8,564.3-642.2,1024.6-668.2c490-26,898.3,200.4,1135.9,627.3c103.9,189.3,111.4,230.2,122.5,664.5c3.7,256.2-22.3,1176.7-55.7,2052.8l-66.8,1585.1h155.9c189.3,0,189.3,0,85.4,438c-193,809.3-701.6,1507.1-1399.5,1922.9c-245,148.5-812.9,389.8-1020.8,438l-103.9,22.3V3488v-259.8l245-111.4c323-144.8,671.9-397.2,887.2-638.5c219-252.4,449.2-720.2,519.7-1050.5C8354.3,1090,8410-64.5,8439.7-1690.4l22.3-1299.3l-89.1-129.9c-259.9-378.6-749.9-404.6-1017.1-52l-107.7,137.4l-18.6,1432.9C7211-190.7,7211-164.7,7125.6-8.8c-141.1,263.6-367.5,478.9-649.6,619.9c-141.1,70.5-289.5,129.9-326.7,129.9c-66.8,0-70.5,74.2-70.5,2134.5V5010H3684.5H1290.2V481.2z M5373.5,2875.5V1520.6h-1689h-1689v1354.9v1354.9h1689h1689V2875.5z"/></g>
</svg>