<?xml version="1.0" standalone="no"?>
<!DOCTYPE svg PUBLIC "-//W3C//DTD SVG 20010904//EN"
 "http://www.w3.org/TR/2001/REC-SVG-20010904/DTD/svg10.dtd">
<svg version="1.0" xmlns="http://www.w3.org/2000/svg"
 width="1085.000000pt" height="1085.000000pt" viewBox="0 0 1085.000000 1085.000000"
 preserveAspectRatio="xMidYMid meet">
<metadata>
Created by potrace 1.11, written by Peter Selinger 2001-2013
</metadata>
<g transform="translate(0.000000,1085.000000) scale(0.100000,-0.100000)"
fill="#000000" stroke="none">
<path d="M7495 7915 c-190 -42 -357 -138 -501 -286 -114 -118 -158 -167 -354
-394 -248 -287 -258 -297 -283 -290 -21 6 -21 5 -4 -9 18 -14 13 -20 -70 -103
-151 -152 -223 -204 -648 -469 -221 -138 -287 -175 -323 -181 -8 -1 -30 -12
-50 -26 -21 -13 -57 -36 -82 -50 -25 -15 -58 -38 -75 -53 l-30 -26 74 6 c41 4
154 25 250 47 225 52 275 58 301 34 27 -24 25 -58 -5 -103 -34 -50 -286 -314
-293 -307 -3 3 42 54 99 113 131 133 199 214 204 241 6 31 0 26 -29 -23 -28
-48 -213 -247 -226 -243 -10 2 -141 -106 -135 -112 3 -2 30 20 61 48 31 29 59
49 63 46 10 -10 -158 -161 -211 -190 -34 -19 -57 -25 -74 -21 -15 4 -23 3 -20
-2 8 -14 -101 -32 -274 -47 -69 -6 -165 -17 -295 -35 -44 -6 -107 -13 -140
-15 -33 -2 -132 -8 -219 -15 -104 -7 -163 -7 -169 -1 -7 7 -22 5 -43 -4 -19
-8 -36 -10 -39 -5 -3 5 8 11 25 15 33 7 45 19 35 36 -5 7 -13 5 -25 -6 -35
-32 -29 3 11 65 37 58 74 97 230 246 79 75 189 143 294 183 137 52 599 161
675 159 8 0 85 47 170 104 85 58 229 151 320 208 188 117 214 138 244 200 21
44 23 45 76 51 50 5 100 22 100 34 0 3 -11 0 -23 -4 -13 -5 -64 -12 -113 -16
-49 -4 -107 -11 -129 -15 -38 -7 -36 -8 23 -9 34 -1 62 -3 62 -6 0 -20 -45
-88 -72 -108 -18 -14 -118 -78 -223 -142 -104 -65 -242 -153 -305 -195 -112
-74 -118 -77 -215 -93 -282 -49 -597 -139 -712 -203 -72 -40 -87 -40 -17 1 25
15 44 28 42 30 -2 2 -44 -5 -93 -15 -75 -16 -115 -18 -240 -14 -144 5 -200 9
-200 14 0 1 -9 3 -20 5 -11 1 -40 7 -65 14 -98 24 -217 51 -253 57 -20 3 -42
14 -47 23 -6 10 -10 11 -10 3 0 -9 -6 -9 -23 3 -28 18 -90 29 -169 29 -32 0
-58 3 -58 7 0 3 -11 4 -24 2 -15 -3 -25 1 -29 10 -20 52 429 237 693 288 25 4
56 10 70 13 102 19 251 34 407 41 51 2 97 6 102 9 5 4 12 2 15 -3 5 -8 65 1
106 16 14 6 22 8 44 11 5 1 5 8 0 15 -5 7 -2 6 6 -3 8 -9 25 -16 37 -16 19 0
20 2 9 16 -12 13 -12 17 -1 27 9 8 16 9 20 3 3 -6 1 -10 -6 -10 -7 0 -10 -3
-7 -6 3 -3 16 1 27 8 l21 13 -22 18 c-13 10 -17 16 -10 12 6 -3 12 -1 12 5 0
8 -7 9 -17 5 -10 -5 -45 -9 -78 -11 -33 -1 -60 -3 -60 -4 0 -3 -67 -9 -117
-11 -27 -1 -48 -5 -48 -8 0 -4 -17 -7 -37 -7 -21 0 -47 -3 -58 -8 -11 -4 -42
-9 -70 -11 -27 -1 -69 -6 -93 -10 -23 -4 -52 -8 -65 -10 -12 -1 -42 -6 -67 -9
-25 -4 -63 -8 -85 -11 -22 -2 -51 -6 -65 -10 -14 -3 -41 -8 -60 -11 -37 -4
-218 -42 -361 -74 -47 -11 -96 -20 -108 -20 -12 0 -30 -4 -39 -9 -10 -5 -40
-12 -67 -15 -28 -4 -61 -9 -75 -12 -14 -3 -35 -6 -47 -6 -13 0 -23 -3 -23 -7
0 -4 -12 -8 -26 -9 -15 -1 -33 -7 -40 -12 -7 -7 -15 -7 -18 -2 -6 10 -93 -4
-111 -18 -5 -4 -28 -13 -50 -20 -104 -33 -308 -124 -339 -152 -11 -10 -25 -18
-30 -18 -6 0 -23 -6 -38 -14 -25 -13 -28 -13 -33 5 -4 10 -10 19 -15 19 -10 0
-42 79 -36 89 3 4 -7 20 -23 35 -27 26 -31 27 -102 21 -83 -8 -112 -11 -119
-15 -3 -2 -9 -4 -15 -5 -5 -2 -13 -4 -17 -5 -10 -3 -16 -4 -58 -14 -19 -4 -60
-16 -90 -26 -30 -10 -62 -18 -70 -17 -13 0 -105 -55 -120 -73 -3 -3 -17 -11
-32 -17 l-27 -12 20 47 c29 67 48 122 40 117 -4 -2 -20 -37 -36 -77 -15 -40
-32 -77 -36 -82 -12 -14 -11 -29 1 -21 6 3 10 1 10 -5 0 -6 -8 -10 -17 -8 -12
2 -26 -12 -43 -44 -14 -26 -29 -51 -34 -55 -10 -10 14 47 27 65 6 7 7 15 4 18
-8 8 -49 -75 -42 -86 3 -4 0 -20 -7 -35 -8 -17 -14 -22 -19 -14 -5 8 -14 -2
-25 -27 -13 -29 -19 -77 -23 -189 -5 -132 -8 -147 -19 -126 -10 17 -11 26 -3
34 17 17 13 26 -8 20 -25 -6 -106 36 -171 90 -30 25 -57 43 -60 40 -10 -11 99
-99 161 -130 35 -18 58 -33 51 -33 -7 0 -31 9 -53 20 -22 12 -44 18 -49 15 -5
-3 -22 2 -37 12 l-28 17 28 -31 c17 -18 24 -33 19 -37 -6 -3 -16 -23 -23 -44
-6 -20 -28 -64 -48 -97 -40 -68 -45 -123 -15 -174 16 -28 17 -32 1 -72 -9 -23
-14 -46 -11 -50 3 -5 0 -9 -7 -9 -6 0 -17 -8 -24 -17 -12 -16 -14 -16 -39 1
-20 12 -25 22 -21 37 8 25 -20 102 -57 155 -27 37 -28 44 -19 84 5 25 8 46 6
48 -7 7 -34 -98 -41 -157 l-6 -58 36 -7 c31 -6 36 -11 36 -34 0 -16 -4 -32 -9
-38 -6 -5 -12 -29 -14 -54 -3 -32 -4 -25 -4 22 0 37 3 65 8 62 5 -3 9 -1 9 4
0 8 -60 24 -68 17 -7 -6 -32 -455 -32 -565 1 -44 1 -44 15 -20 8 14 14 19 15
11 0 -7 6 -11 15 -7 19 7 20 -18 0 -34 -8 -6 -18 -9 -23 -6 -5 3 -15 -6 -22
-20 -11 -19 -11 -35 -3 -72 6 -26 18 -77 26 -114 26 -113 34 -120 146 -133 40
-5 61 -4 58 2 -4 6 4 8 19 5 20 -4 23 -7 12 -14 -9 -7 -6 -8 12 -4 39 9 222
-24 245 -45 21 -18 55 -29 178 -54 61 -12 90 -24 130 -54 29 -22 85 -57 126
-79 l74 -40 -39 -7 c-112 -18 -458 -98 -501 -116 -90 -37 -93 -84 -8 -124 109
-52 609 -128 1085 -165 74 -6 155 -12 180 -15 84 -8 494 -26 785 -35 160 -4
625 -5 1035 -2 410 4 903 7 1095 7 346 1 475 9 654 41 68 12 109 28 205 79
123 65 209 97 422 159 151 44 551 155 759 211 88 24 216 59 285 78 352 97 708
193 905 242 198 49 236 56 385 64 175 11 243 26 278 64 11 12 20 24 19 27 -1
3 17 41 40 85 52 101 89 220 109 349 15 95 18 103 55 142 43 44 70 109 114
279 54 211 93 504 81 619 -11 107 -38 217 -51 212 -7 -2 -17 0 -21 4 -10 10
-79 -76 -95 -117 -8 -22 -29 -32 -29 -14 0 4 -26 37 -58 72 -59 65 -92 138
-78 175 4 10 -1 25 -10 36 -10 10 -15 21 -11 24 3 3 10 -4 16 -15 6 -11 21
-25 32 -31 92 -50 44 247 -56 340 l-27 25 -19 -24 c-10 -13 -19 -19 -19 -14 0
6 9 18 20 28 19 17 21 17 47 0 27 -18 27 -18 -5 22 -18 23 -32 50 -32 62 0 12
-4 21 -8 21 -12 0 -36 48 -37 73 0 20 -6 22 -52 23 -47 1 -56 5 -92 43 -22 22
-46 41 -54 41 -9 0 -17 3 -19 8 -1 4 -17 17 -34 29 -27 19 -36 20 -78 11 -42
-9 -45 -12 -34 -26 8 -11 4 -10 -11 3 l-23 20 39 16 c21 9 40 12 41 8 6 -16
22 -9 22 9 0 20 22 34 83 52 l38 12 -41 41 c-23 23 -50 59 -61 80 -11 20 -24
37 -29 37 -6 0 -10 8 -10 18 0 42 -32 120 -61 150 -42 43 -290 207 -409 270
-202 108 -426 191 -571 213 -45 7 -74 15 -65 19 9 3 -30 5 -86 4 -99 -1 -100
-1 -28 6 59 5 65 7 28 8 -25 1 -82 9 -125 17 -43 8 -118 18 -168 20 -49 3
-103 7 -120 10 -16 2 -57 -3 -90 -10z m342 -51 c-3 -3 -12 -4 -19 -1 -8 3 -5
6 6 6 11 1 17 -2 13 -5z m328 -130 c111 -18 200 -44 333 -96 l103 -41 66 -101
c36 -55 69 -114 73 -131 4 -16 23 -82 43 -145 20 -63 45 -147 56 -186 l19 -72
-30 -6 c-17 -3 -40 -6 -52 -6 -17 0 -18 2 -6 10 11 7 9 11 -13 19 -44 17 -75
13 -87 -10 -14 -26 -7 -35 10 -14 13 16 45 21 35 6 -3 -5 0 -11 7 -14 7 -2 3
-2 -9 0 -13 2 -23 0 -23 -5 0 -7 -91 -32 -118 -32 -7 0 -12 5 -12 11 0 7 11 9
26 6 18 -3 22 -1 15 6 -7 7 -27 7 -63 0 -61 -13 -159 -4 -166 15 -2 7 5 12 16
12 31 0 33 22 8 125 -13 53 -19 92 -13 86 6 -6 43 -11 82 -11 38 0 105 -7 148
-15 107 -20 111 -20 85 10 -15 17 -32 25 -55 25 -21 0 -32 -4 -28 -10 4 -6 15
-8 25 -5 10 3 21 1 25 -5 7 -11 -18 -13 -52 -4 -13 4 -20 10 -17 15 3 5 0 10
-5 10 -6 1 -20 3 -31 4 -11 1 -58 3 -104 4 -84 1 -84 1 -95 31 l-10 30 107 1
c59 1 121 4 137 8 17 4 -32 7 -108 6 l-139 0 -5 27 c-10 52 -35 63 -146 65
l-101 2 -28 78 c-15 43 -28 81 -28 86 0 4 66 7 147 7 80 0 144 2 142 5 -3 2
-58 5 -123 6 -98 1 -116 4 -112 16 3 8 2 11 -3 8 -6 -3 -13 1 -18 8 -4 7 -16
16 -25 20 -15 5 -16 2 -7 -20 5 -14 7 -28 5 -31 -3 -3 -10 6 -15 19 -5 13 -20
53 -35 88 -14 36 -26 66 -26 68 0 2 29 1 64 -1 35 -2 69 0 76 4 13 8 -60 20
-121 20 -22 0 -39 4 -39 10 0 11 83 5 215 -16z m-391 -24 l6 -25 -12 23 c-11
21 -16 23 -57 17 -138 -20 -297 -78 -393 -142 -51 -35 -83 -51 -50 -26 56 42
151 95 221 122 82 31 262 73 272 62 4 -3 10 -17 13 -31z m791 -48 c-3 -3 -11
0 -18 7 -9 10 -8 11 6 5 10 -3 15 -9 12 -12z m124 -122 c72 -107 104 -160 98
-160 -3 0 -31 42 -63 92 -33 51 -74 113 -93 138 -19 25 -26 38 -16 30 9 -8 43
-53 74 -100z m-88 83 c13 -16 12 -17 -3 -4 -10 7 -18 15 -18 17 0 8 8 3 21
-13z m79 -6 c0 -6 3 -8 6 -4 7 6 64 -19 64 -29 0 -2 -13 2 -30 11 -16 9 -30
13 -30 10 0 -3 26 -45 58 -93 50 -74 138 -222 100 -168 -85 121 -193 294 -182
289 8 -3 14 -10 14 -16z m-1540 -30 c0 -2 -10 -12 -22 -23 l-23 -19 19 23 c18
21 26 27 26 19z m589 -100 c66 -205 129 -492 139 -629 8 -103 6 -108 -38 -108
-21 0 -29 48 -36 214 -4 121 -14 157 -14 53 0 -36 -4 -68 -10 -72 -19 -12
-140 -18 -140 -7 0 6 12 12 28 14 41 5 43 47 2 82 -27 22 -41 26 -99 26 l-68
0 -11 37 c-6 20 -9 39 -6 42 3 3 65 9 137 12 73 4 137 8 144 8 6 1 9 10 6 21
-5 18 -15 20 -157 22 -143 3 -151 4 -154 23 -3 20 2 21 148 20 146 0 151 1
145 20 -3 11 -8 42 -12 68 -3 26 -10 50 -16 54 -10 6 -5 -68 7 -98 6 -14 -11
-17 -135 -23 -79 -3 -145 -3 -149 1 -3 5 -16 42 -29 83 -13 41 -30 83 -38 92
-20 22 -65 37 -125 40 -53 3 -58 10 -26 32 19 13 59 16 234 16 l212 0 11 -45
c6 -25 15 -45 20 -45 11 0 -20 85 -36 101 -8 8 -7 16 5 30 8 10 19 16 23 13 5
-3 22 -46 38 -97z m1154 20 c26 -21 -68 30 -104 56 -13 10 0 5 29 -10 28 -15
62 -36 75 -46z m155 -105 c69 -50 93 -82 91 -120 0 -9 -6 1 -13 23 -9 33 -25
49 -86 93 -41 29 -86 62 -100 73 l-25 20 30 -18 c17 -9 63 -41 103 -71z
m-2008 75 c0 -2 -15 -16 -32 -33 l-33 -29 29 33 c28 30 36 37 36 29z m1956
-93 c117 -81 134 -109 134 -223 0 -59 -4 -84 -16 -95 -8 -9 -19 -16 -24 -16
-16 0 -41 32 -70 91 -17 32 -53 97 -81 145 -67 112 -81 164 -47 164 5 0 52
-29 104 -66z m-155 -82 c6 -20 20 -54 31 -75 11 -23 16 -43 10 -52 -5 -10 -17
15 -39 80 -17 52 -27 93 -23 90 5 -3 14 -22 21 -43z m306 -74 c-3 -7 -5 -2 -5
12 0 14 2 19 5 13 2 -7 2 -19 0 -25z m-260 -100 c-3 -8 -6 -5 -6 6 -1 11 2 17
5 13 3 -3 4 -12 1 -19z m330 -10 c-3 -7 -5 -2 -5 12 0 14 2 19 5 13 2 -7 2
-19 0 -25z m-1239 -128 c0 -9 -3 -7 -8 5 -5 11 -8 29 -8 40 0 16 2 15 8 -5 4
-14 8 -32 8 -40z m951 -20 c0 -9 -4 -8 -9 5 -5 11 -9 27 -9 35 0 9 4 8 9 -5 5
-11 9 -27 9 -35z m-2152 6 c-3 -9 4 -21 19 -30 23 -16 24 -15 24 4 0 12 4 19
9 16 17 -11 46 -323 31 -346 -11 -17 -9 -19 -39 45 -13 28 -26 66 -28 85 -2
19 -10 77 -18 129 -8 52 -12 98 -9 103 9 13 17 9 11 -6z m1523 -35 c0 -6 -17
-7 -37 -4 -52 8 -54 13 -5 13 23 0 42 -4 42 -9z m830 -43 c18 -24 36 -48 39
-53 7 -13 -24 20 -50 53 l-18 24 -138 -27 c-144 -27 -689 -140 -733 -152 -14
-3 -22 -3 -19 0 6 8 179 48 465 108 110 23 246 52 304 64 58 13 108 23 111 24
3 1 21 -18 39 -41z m-1598 -27 c81 -31 81 -43 1 -20 -80 22 -100 24 -58 3 l30
-14 -35 5 c-172 28 -347 32 -393 9 -31 -16 -32 -16 -14 2 36 38 75 44 247 40
140 -3 174 -7 222 -25z m653 -131 c-3 -5 -16 -10 -28 -9 -20 1 -20 2 3 9 14 4
26 8 28 9 2 1 0 -3 -3 -9z m-605 -8 c0 -30 -56 -41 -107 -21 l-28 12 25 7 c34
11 110 12 110 2z m547 -8 c-3 -3 -12 -4 -19 -1 -8 3 -5 6 6 6 11 1 17 -2 13
-5z m-1018 -24 c15 -8 10 -11 -53 -25 -31 -7 -48 7 -39 32 5 14 61 10 92 -7z
m978 14 c-3 -3 -12 -4 -19 -1 -8 3 -5 6 6 6 11 1 17 -2 13 -5z m-377 -40 c0
-21 -4 -34 -11 -32 -6 2 -10 7 -10 11 1 4 1 18 1 32 0 14 5 25 10 25 6 0 10
-16 10 -36z m287 20 c-3 -3 -12 -4 -19 -1 -8 3 -5 6 6 6 11 1 17 -2 13 -5z
m-379 -42 c-29 -5 -36 8 -13 24 17 13 20 13 26 -3 4 -13 1 -19 -13 -21z m1422
-26 c0 -2 -8 -10 -17 -17 -16 -13 -17 -12 -4 4 13 16 21 21 21 13z m116 -53
c-8 -8 -12 -3 -21 27 l-7 25 17 -23 c9 -13 14 -26 11 -29z m25 20 c13 -16 12
-17 -3 -4 -10 7 -18 15 -18 17 0 8 8 3 21 -13z m440 -68 c15 -27 35 -77 44
-110 15 -60 21 -155 8 -155 -11 0 -53 43 -53 54 0 6 5 3 11 -6 5 -10 16 -15
25 -11 12 4 14 16 8 62 -11 93 -70 221 -95 205 -5 -3 -9 0 -9 6 0 27 35 1 61
-45z m-911 26 c19 -5 51 -12 70 -14 63 -9 69 -14 64 -60 -3 -36 -13 -51 -68
-104 -75 -72 -91 -96 -73 -111 22 -18 121 -41 192 -45 113 -6 242 -58 314
-127 23 -22 48 -40 56 -40 11 0 15 -14 16 -52 l1 -53 12 40 c7 26 14 36 19 28
5 -7 17 -13 28 -13 10 0 19 -4 19 -8 0 -5 18 8 40 30 23 21 59 47 80 58 42 21
105 27 115 10 3 -5 16 -11 28 -11 39 -2 -56 -18 -110 -18 -46 -1 -58 -6 -90
-35 -21 -19 -58 -68 -83 -109 -30 -50 -52 -77 -67 -80 -19 -3 -21 -1 -12 15 6
11 8 24 5 31 -2 7 -5 4 -5 -5 -1 -28 -44 -22 -72 10 -14 15 -37 44 -52 64 -38
52 -70 58 -234 47 -162 -10 -259 -22 -403 -49 -58 -11 -127 -21 -155 -24 -27
-2 -90 -11 -140 -20 -49 -8 -120 -16 -156 -16 -36 0 -115 -9 -175 -20 -60 -11
-156 -23 -214 -26 -102 -7 -107 -6 -134 18 l-29 25 106 52 c96 46 148 68 317
132 30 12 63 30 73 41 12 15 17 16 17 6 0 -21 50 -65 83 -73 75 -19 130 24
120 93 -5 30 1 37 28 34 4 -1 15 8 25 20 18 20 18 21 1 15 -35 -13 -133 -36
-189 -45 -52 -8 -58 -7 -63 9 -7 22 1 39 19 39 8 0 19 6 25 14 7 8 20 12 29 9
10 -2 49 7 88 21 75 27 114 33 114 16 0 -26 108 14 178 67 59 44 37 69 -68 75
-36 2 -71 8 -78 12 -8 5 -12 1 -12 -11 0 -17 -8 -18 -75 -15 -58 3 -89 -1
-133 -16 -31 -12 -82 -24 -114 -27 -66 -7 -103 -17 -625 -159 -216 -58 -396
-106 -400 -106 -22 0 19 20 67 33 30 8 321 88 645 176 325 89 601 163 615 165
14 2 32 6 40 9 8 4 78 22 155 41 120 30 152 38 185 45 3 0 21 -3 40 -8z m514
-7 c17 -43 9 -51 -76 -68 -46 -9 -93 -19 -105 -22 -15 -3 -26 2 -33 15 -13 25
-8 28 90 62 90 31 116 34 124 13z m-237 -66 c-3 -7 -5 -2 -5 12 0 14 2 19 5
13 2 -7 2 -19 0 -25z m65 -83 c6 -12 -5 -5 -26 14 -20 19 -36 39 -36 44 0 12
48 -33 62 -58z m68 -35 c0 -5 -12 -10 -27 -9 -25 0 -26 1 -8 9 27 12 35 12 35
0z m-920 -216 c0 -17 -22 -14 -28 4 -2 7 3 12 12 12 9 0 16 -7 16 -16z m-153
-26 c-2 -7 3 -18 12 -25 10 -8 11 -12 4 -13 -13 0 -26 17 -29 38 -1 6 2 12 8
12 5 0 8 -6 5 -12z m-1100 -34 c-3 -3 -113 -36 -244 -74 -236 -67 -293 -86
-293 -94 0 -2 37 -9 81 -16 104 -15 205 -46 213 -65 3 -8 11 -13 18 -10 16 6
103 -57 118 -85 9 -17 6 -25 -17 -48 -15 -16 -49 -41 -75 -56 l-47 -27 -58 39
c-159 107 -303 103 -488 -15 -38 -25 -81 -55 -95 -67 -18 -15 -21 -16 -10 -3
26 35 129 108 195 138 85 40 194 50 279 25 55 -16 59 -16 72 1 19 25 17 50 -5
72 -30 30 -128 61 -212 68 -51 4 -80 10 -83 19 -3 7 -2 15 2 18 11 6 253 78
457 136 98 28 181 53 184 55 2 3 7 3 9 0 3 -3 3 -8 -1 -11z m-4534 -111 c-13
-2 -35 -2 -50 0 -16 2 -5 4 22 4 28 0 40 -2 28 -4z m4507 -17 c0 -8 -11 -17
-25 -20 -17 -4 -23 -11 -19 -19 5 -9 4 -9 -5 -1 -16 15 -51 6 -51 -13 0 -11 7
-14 25 -10 25 4 53 -22 38 -37 -12 -12 -22 -6 -17 9 5 13 2 14 -20 6 -14 -6
-42 -11 -61 -13 -20 -1 -39 -6 -41 -10 -9 -14 -21 -9 -27 11 -3 14 2 18 24 19
39 1 69 11 69 23 0 6 -9 7 -20 4 -15 -5 -20 -2 -20 13 0 23 40 38 52 19 5 -8
11 -8 16 -2 22 30 82 46 82 21z m-4582 -23 c-10 -2 -26 -2 -35 0 -10 3 -2 5
17 5 19 0 27 -2 18 -5z m4423 -20 c5 -14 5 -23 -1 -23 -6 0 -10 5 -10 11 0 5
-5 7 -11 3 -13 -7 -31 15 -22 29 9 15 35 3 44 -20z m149 -50 c-10 -16 -11 -15
-6 7 3 14 6 34 7 45 1 13 3 11 6 -7 2 -15 -1 -35 -7 -45z m-2750 -107 c0 -2
-26 -25 -57 -51 l-58 -47 55 51 c54 50 60 55 60 47z m5240 -93 c-1 -12 -50
-69 -50 -58 0 9 41 64 48 65 1 0 2 -3 2 -7z m-6844 -22 c46 -21 81 -64 90
-110 5 -25 -1 -42 -31 -87 -20 -31 -31 -53 -23 -48 10 6 9 3 -1 -10 -40 -48
-155 -77 -229 -56 -53 14 -117 70 -132 116 -22 65 33 158 115 195 54 25 157
25 211 0z m233 -13 c14 -10 31 -28 38 -39 29 -41 76 -50 255 -48 92 0 172 -2
178 -6 5 -3 10 -1 10 4 0 6 18 11 41 11 29 0 38 -3 33 -12 -5 -8 0 -7 11 2 10
8 16 10 12 4 -6 -11 133 -9 408 5 77 4 141 7 142 6 1 0 -34 -43 -77 -95 -44
-51 -78 -96 -75 -98 2 -2 23 3 47 11 78 27 84 28 33 2 l-50 -25 135 5 c90 3
127 1 113 -5 -13 -5 -23 -17 -23 -25 0 -9 4 -14 8 -11 5 3 8 -8 7 -24 -1 -20
3 -30 13 -30 10 0 13 -8 10 -24 -4 -18 -1 -23 10 -18 10 3 13 1 8 -6 -4 -7 2
-14 17 -17 27 -7 56 -51 50 -77 -4 -17 -59 -42 -73 -33 -5 3 -10 1 -12 -4 -1
-5 -16 -11 -33 -14 -36 -6 -187 -81 -179 -89 13 -13 -95 6 -132 23 -52 24
-160 26 -192 3 -20 -13 -57 -16 -240 -16 -205 0 -221 2 -297 26 -99 32 -144
61 -193 129 -55 74 -60 93 -25 100 15 4 204 22 418 42 215 19 409 38 433 41
42 5 59 24 22 24 -27 0 -25 12 6 41 15 13 37 41 50 62 16 24 32 37 47 37 12 0
29 5 37 11 11 8 -47 9 -200 4 -118 -3 -364 -10 -547 -15 -205 -5 -340 -13
-352 -20 -20 -10 -21 -8 -21 37 0 32 -8 62 -25 91 -14 25 -19 42 -12 41 7 -1
19 0 27 4 37 14 47 15 80 10 19 -3 46 -14 59 -25z m1251 29 c0 -2 -12 -14 -27
-28 l-28 -24 24 28 c23 25 31 32 31 24z m1446 -45 c-5 -4 -66 26 -66 33 0 3
16 -3 35 -12 19 -9 33 -18 31 -21z m-50 -3 c32 -17 61 -33 64 -36 3 -3 -29 -1
-70 3 -41 4 -83 8 -92 8 -15 0 -13 5 9 28 15 15 28 28 28 28 1 0 29 -14 61
-31z m-1476 -23 c0 -2 -8 -10 -17 -17 -16 -13 -17 -12 -4 4 13 16 21 21 21 13z
m5390 0 c0 -3 -4 -8 -10 -11 -5 -3 -10 -1 -10 4 0 6 5 11 10 11 6 0 10 -2 10
-4z m180 -32 c32 -28 59 -73 79 -137 12 -37 12 -38 -26 -72 -29 -26 -34 -35
-20 -35 10 0 15 -4 12 -10 -3 -5 0 -10 8 -10 10 0 13 7 10 20 -5 19 11 50 27
50 13 0 30 -146 30 -260 0 -142 -29 -293 -72 -380 -18 -36 -38 -64 -45 -63 -7
2 -10 -3 -7 -11 7 -17 -38 -46 -72 -46 -42 0 -81 36 -112 103 -30 62 -50 129
-36 114 12 -12 64 44 64 69 0 30 19 73 44 102 l20 23 13 -38 13 -38 -4 43 c-2
23 -1 42 3 42 14 0 28 45 21 64 -6 17 -7 17 -13 3 -3 -8 -1 -18 6 -21 7 -3 3
-4 -7 -3 -13 1 -22 -6 -25 -20 -3 -12 -39 -47 -78 -78 -40 -31 -74 -64 -74
-73 -4 -49 -17 99 -18 198 -1 197 44 360 124 449 46 51 87 55 135 15z m-4388
-42 l-23 -18 26 -47 c18 -36 25 -63 25 -106 0 -61 -23 -213 -41 -268 -10 -30
-11 -31 -37 -17 -15 8 -34 14 -42 14 -9 0 -16 8 -17 19 -1 10 -17 35 -37 56
-29 30 -34 41 -26 56 8 14 7 18 -2 15 -7 -1 -10 -1 -5 1 4 3 5 9 2 14 -4 5 2
6 11 2 14 -5 16 -2 11 17 -3 13 -2 29 4 36 7 8 5 17 -6 28 -14 14 -14 19 4 57
12 23 23 57 27 75 5 26 2 33 -13 36 -13 4 -10 7 12 12 17 4 53 13 80 20 68 19
74 18 47 -2z m4178 8 c0 -5 -5 -10 -11 -10 -5 0 -7 5 -4 10 3 6 8 10 11 10 2
0 4 -4 4 -10z m-5213 -156 c-3 -3 -12 -4 -19 -1 -8 3 -5 6 6 6 11 1 17 -2 13
-5z m-1857 -65 c0 -6 -4 -7 -10 -4 -5 3 -10 11 -10 16 0 6 5 7 10 4 6 -3 10
-11 10 -16z m370 -17 c0 -13 -96 -55 -111 -50 -8 3 11 16 41 30 61 29 70 32
70 20z m3145 -132 c-10 -11 -22 -20 -28 -20 -5 0 1 9 14 20 31 25 37 25 14 0z
m-1597 -15 c-3 -3 -9 2 -12 12 -6 14 -5 15 5 6 7 -7 10 -15 7 -18z m-2898 -15
c0 -5 -5 -10 -11 -10 -5 0 -7 5 -4 10 3 6 8 10 11 10 2 0 4 -4 4 -10z m4986
-81 c219 -67 369 -289 381 -564 13 -285 -126 -545 -351 -655 -212 -105 -412
-73 -578 91 -59 58 -68 72 -68 103 0 20 5 36 10 36 6 0 10 -5 10 -10 0 -12
151 62 198 97 29 21 32 22 33 6 1 -25 35 53 44 101 6 35 4 38 -12 32 -13 -4
-12 -1 6 14 13 11 21 20 18 20 -19 0 -201 -76 -240 -100 -57 -35 -56 -35 -52
-12 2 9 6 47 10 83 l7 67 58 -5 c47 -5 67 -1 103 16 25 12 52 19 62 15 15 -6
16 -4 7 13 -22 41 -92 92 -147 108 -62 18 -64 24 -42 108 l12 48 30 -40 c47
-64 109 -86 152 -56 16 11 28 13 48 5 30 -12 33 -16 -39 90 -80 120 -133 189
-140 183 -11 -11 -6 28 10 83 15 53 16 54 97 94 128 63 236 71 373 29z m-5209
-11 c-3 -8 -6 -5 -6 6 -1 11 2 17 5 13 3 -3 4 -12 1 -19z m4260 -2 c-5 -11 0
-13 23 -6 16 5 35 12 41 16 7 4 9 3 5 -4 -6 -10 -138 -63 -188 -76 -30 -7 -37
4 -14 23 21 17 109 60 125 60 7 1 11 -5 8 -13z m-3007 -27 c63 -11 142 -26
175 -34 l60 -15 -95 6 c-52 3 -151 11 -220 19 -69 7 -179 19 -245 27 l-120 13
80 5 c125 8 240 1 365 -21z m-1240 1 c0 -5 -4 -10 -10 -10 -5 0 -10 5 -10 10
0 6 5 10 10 10 6 0 10 -4 10 -10z m2652 -8 c4 -4 -35 -7 -87 -7 -92 0 -104 3
-87 19 8 9 164 -2 174 -12z m-2652 -38 c0 -16 -2 -16 -24 -8 -12 5 -13 9 -3
19 14 15 27 10 27 -11z m392 6 c190 -31 653 -87 856 -105 203 -17 881 -50
1237 -61 166 -5 239 -10 261 -21 30 -14 171 -189 161 -200 -14 -14 -51 14 -86
65 -21 31 -49 66 -62 77 -20 17 -20 15 5 -20 l29 -40 -37 35 -37 35 -207 8
c-114 4 -220 6 -237 4 -16 -2 4 -5 45 -6 41 -1 82 -6 90 -11 15 -9 8 -10 -122
-12 -18 -1 -39 -5 -45 -11 -7 -5 -19 -7 -28 -3 -14 5 -32 -16 -34 -39 0 -5 -9
-11 -21 -13 -34 -6 -22 -21 18 -21 89 -2 431 -28 377 -29 -84 -2 -890 41
-1005 53 -25 2 -74 7 -110 11 -36 4 -73 7 -82 8 -10 0 -18 5 -18 11 0 5 -4 4
-9 -3 -10 -17 -97 -2 -94 15 3 15 -25 24 -33 11 -5 -7 -2 -8 7 -3 9 5 11 5 4
-2 -15 -15 -85 -4 -78 12 3 9 -2 14 -14 14 -49 1 -221 32 -277 51 -17 5 -51
12 -76 14 -25 3 -58 10 -75 15 -16 6 -55 13 -85 15 -30 2 -84 13 -119 25 -35
11 -78 21 -96 21 -38 0 -137 39 -129 51 7 12 -36 21 -69 15 -34 -6 -35 1 -2
14 19 7 77 2 213 -20 103 -16 248 -36 322 -45 74 -9 168 -20 208 -26 40 -5 90
-8 110 -8 20 1 -12 7 -73 15 -183 23 -667 94 -709 104 -25 5 -46 5 -57 -1 -26
-13 -33 -11 -19 6 16 20 55 19 202 -5z m3538 -83 c0 -26 -24 -38 -46 -22 -13
9 -25 10 -35 4 -10 -6 -10 -9 -1 -9 6 0 12 -11 12 -25 0 -14 -4 -25 -10 -25
-5 0 -10 -5 -10 -11 0 -16 -26 -39 -35 -31 -5 4 -5 -4 -1 -18 18 -61 18 -70 3
-70 -42 0 -64 19 -72 62 l-9 43 -6 -50 -6 -50 -11 40 c-22 73 -31 125 -26 145
6 21 17 23 166 28 71 3 87 1 87 -11z m-3780 -15 c0 -5 -7 -17 -15 -28 -14 -18
-14 -17 -4 9 12 27 19 34 19 19z m5580 -67 c0 -5 -5 -3 -10 5 -5 8 -10 20 -10
25 0 6 5 3 10 -5 5 -8 10 -19 10 -25z m-5740 -107 c0 -23 -3 -29 -9 -19 -8 12
-4 51 5 51 2 0 4 -15 4 -32z m2220 -30 c0 -18 -2 -20 -9 -8 -6 8 -7 18 -5 22
9 14 14 9 14 -14z m2605 -4 c9 -15 12 -23 6 -20 -11 7 -35 46 -28 46 3 0 12
-12 22 -26z m-948 -6 c-3 -8 -6 -5 -6 6 -1 11 2 17 5 13 3 -3 4 -12 1 -19z
m50 9 c-5 -15 -29 -16 -34 -2 -2 6 6 11 18 12 12 1 19 -3 16 -10z m-77 -7 c0
-9 -15 -14 -33 -11 -5 1 -6 -8 -2 -19 6 -20 3 -21 -37 -18 -31 2 -44 8 -46 21
-2 10 3 17 12 17 9 0 16 5 16 10 0 6 20 10 45 10 25 0 45 -4 45 -10z m3807
-21 c6 -6 43 -14 82 -17 64 -4 71 -7 71 -26 0 -12 -3 -16 -8 -10 -8 12 -159
30 -232 27 l-45 -2 55 18 c69 24 64 23 77 10z m-3727 -9 c0 -5 -2 -10 -4 -10
-3 0 -8 5 -11 10 -3 6 -1 10 4 10 6 0 11 -4 11 -10z m-1273 -26 c-3 -3 -12 -4
-19 -1 -8 3 -5 6 6 6 11 1 17 -2 13 -5z m1218 -4 c4 -6 -5 -10 -20 -10 -15 0
-24 4 -20 10 3 6 12 10 20 10 8 0 17 -4 20 -10z m-1032 -7 c-7 -2 -19 -2 -25
0 -7 3 -2 5 12 5 14 0 19 -2 13 -5z m1097 -10 c0 -10 -4 -14 -8 -8 -4 6 -11
13 -16 18 -5 4 -2 7 7 7 10 0 17 -8 17 -17z m17 -69 c-3 -3 -12 -4 -19 -1 -8
3 -5 6 6 6 11 1 17 -2 13 -5z m770 -40 c-6 -6 -77 19 -77 27 0 4 18 0 40 -8
22 -9 39 -18 37 -19z m-857 16 c0 -5 -5 -10 -11 -10 -5 0 -7 5 -4 10 3 6 8 10
11 10 2 0 4 -4 4 -10z m75 0 c3 -5 -1 -10 -10 -10 -9 0 -13 5 -10 10 3 6 8 10
10 10 2 0 7 -4 10 -10z m-61 -72 c-7 -23 -25 -41 -33 -32 -7 6 21 54 31 54 5
0 6 -10 2 -22z m65 -12 c-12 -25 -49 -37 -49 -16 0 6 6 9 13 8 6 -2 12 4 12
12 0 13 25 32 33 25 1 -1 -3 -14 -9 -29z m-3925 -31 c3 -8 1 -15 -4 -15 -6 0
-10 7 -10 15 0 8 2 15 4 15 2 0 6 -7 10 -15z m3890 -37 c-42 -47 -45 -49 -83
-46 -53 4 -48 24 5 23 25 0 48 3 51 8 2 4 -3 7 -11 7 -8 0 -18 5 -22 11 -5 8
1 10 19 7 16 -3 31 0 38 8 6 8 16 14 22 14 6 0 -2 -15 -19 -32z m-3832 -20
c-17 -8 -26 -8 -34 0 -9 9 -4 12 23 11 32 0 33 -1 11 -11z m3705 -89 l38 -6
-37 -2 c-39 -1 -68 19 -68 47 1 12 5 10 14 -8 10 -17 26 -27 53 -31z m138 41
c12 -19 -35 -69 -88 -94 -28 -14 -74 -27 -102 -30 -48 -5 -48 -5 13 9 66 15
102 31 114 49 12 18 9 26 -9 26 -11 0 -5 7 15 16 17 9 32 20 32 25 0 12 17 11
25 -1z m-248 -136 c-3 -3 -12 -4 -19 -1 -8 3 -5 6 6 6 11 1 17 -2 13 -5z
m-1108 -90 c7 -7 -230 -2 -309 6 -44 5 2 6 115 3 105 -3 192 -7 194 -9z m164
-11 c-29 -2 -77 -2 -105 0 -29 2 -6 3 52 3 58 0 81 -1 53 -3z"/>
<path d="M8218 7703 c7 -3 16 -2 19 1 4 3 -2 6 -13 5 -11 0 -14 -3 -6 -6z"/>
<path d="M7993 7686 c3 -6 10 -10 16 -8 12 2 128 -14 166 -24 17 -4 18 -3 4 5
-26 17 -191 41 -186 27z"/>
<path d="M8731 7115 c0 -5 11 -30 24 -55 13 -25 24 -40 24 -35 0 6 -11 30 -24
55 -13 25 -24 41 -24 35z"/>
<path d="M8766 7087 c3 -10 9 -15 12 -12 3 3 0 11 -7 18 -10 9 -11 8 -5 -6z"/>
<path d="M8801 7047 c-13 -21 -12 -21 5 -5 10 10 16 20 13 22 -3 3 -11 -5 -18
-17z"/>
<path d="M8813 6996 c7 -13 15 -22 19 -20 8 5 -13 44 -23 44 -4 0 -2 -11 4
-24z"/>
<path d="M8312 6130 c0 -14 2 -19 5 -12 2 6 2 18 0 25 -3 6 -5 1 -5 -13z"/>
<path d="M9262 5920 c0 -14 2 -19 5 -12 2 6 2 18 0 25 -3 6 -5 1 -5 -13z"/>
<path d="M2383 5630 c-18 -4 -39 -12 -46 -19 -8 -6 -17 -8 -20 -4 -13 13 -7
-13 9 -35 22 -32 36 -27 66 23 15 25 26 45 25 44 -1 -1 -17 -5 -34 -9z"/>
<path d="M2478 5585 c4 -48 13 -53 57 -33 45 20 25 67 -33 74 -26 3 -27 2 -24
-41z"/>
<path d="M2407 5576 c-17 -26 -13 -36 15 -36 13 0 18 8 18 30 0 36 -12 38 -33
6z"/>
<path d="M2255 5551 c-8 -27 3 -97 21 -133 28 -55 114 -83 137 -43 8 15 7 17
-7 12 -9 -4 -24 -10 -33 -13 -15 -5 -15 -4 -3 5 12 8 12 11 -3 17 -13 5 -17
18 -17 54 0 41 -4 50 -27 65 -16 10 -35 27 -44 38 l-17 20 -7 -22z"/>
<path d="M2580 5533 c0 -13 -53 -33 -90 -33 -31 0 -50 -32 -50 -81 0 -17 -5
-39 -10 -50 -9 -15 -7 -19 7 -19 32 1 99 37 121 65 29 36 47 104 33 118 -8 8
-11 8 -11 0z"/>
<path d="M2387 5463 c3 -21 8 -40 10 -42 7 -9 23 16 29 47 6 29 4 32 -19 32
-24 0 -25 -2 -20 -37z"/>
<path d="M4105 5140 c3 -5 11 -10 16 -10 6 0 7 5 4 10 -3 6 -11 10 -16 10 -6
0 -7 -4 -4 -10z"/>
<path d="M9420 5550 c-17 -17 -20 -33 -19 -107 0 -62 3 -81 9 -66 5 12 8 48 8
80 -2 41 3 66 16 86 21 32 14 35 -14 7z"/>
<path d="M9516 5530 c-41 -117 -46 -138 -37 -161 10 -24 10 -23 11 6 2 47 24
96 47 109 22 11 22 11 3 36 -15 19 -20 22 -24 10z"/>
<path d="M9325 5407 c-14 -38 -15 -53 -5 -101 18 -87 36 -82 30 8 -1 16 -6 40
-11 53 -5 14 -5 33 2 49 5 15 8 29 5 31 -2 2 -12 -16 -21 -40z"/>
<path d="M9526 5244 c-9 -36 0 -41 23 -13 26 30 26 39 2 39 -12 0 -21 -9 -25
-26z"/>
<path d="M9460 5231 c-5 -11 -10 -25 -10 -32 0 -7 -7 -20 -15 -29 -19 -21 -24
-82 -7 -86 7 -1 8 0 2 3 -17 8 -11 26 25 72 19 24 35 54 35 67 0 29 -15 31
-30 5z"/>
<path d="M9584 5195 c-24 -37 -10 -42 16 -6 12 17 17 31 11 31 -6 0 -18 -11
-27 -25z"/>
<path d="M9275 5156 c-4 -29 -5 -61 -3 -70 5 -25 52 -51 74 -41 18 8 17 9 -3
12 -27 5 -31 23 -5 24 9 0 12 3 5 5 -13 6 -6 34 8 34 5 0 14 -11 19 -25 5 -14
17 -25 25 -25 13 0 14 4 5 20 -6 11 -9 24 -6 29 3 4 -16 21 -41 37 -26 16 -52
35 -59 41 -10 11 -14 2 -19 -41z"/>
<path d="M9489 5177 c-18 -29 -20 -57 -3 -50 8 3 14 0 14 -6 0 -6 -5 -11 -12
-11 -9 0 -9 -3 -1 -11 12 -12 44 -5 42 8 -1 4 1 16 5 25 5 11 1 26 -11 42
l-19 24 -15 -21z m9 -17 c-7 -10 -14 -17 -17 -15 -4 4 18 35 25 35 2 0 -1 -9
-8 -20z"/>
<path d="M9550 5130 c-13 -23 -13 -43 -1 -35 5 3 16 -1 24 -10 13 -13 16 -13
21 1 4 9 13 14 21 10 29 -11 15 12 -20 33 -34 20 -35 20 -45 1z"/>
<path d="M9475 5030 c-7 -12 13 -80 24 -80 3 0 8 20 9 45 1 33 -2 45 -13 45
-7 0 -17 -5 -20 -10z"/>
<path d="M9526 4953 c1 -43 -2 -67 -5 -53 -4 14 -14 26 -22 28 -12 2 -18 -17
-28 -95 -6 -54 -14 -115 -17 -135 -6 -36 -5 -37 20 -25 23 11 25 16 20 67 -3
30 -1 69 5 85 9 29 9 29 11 5 0 -14 10 -41 20 -60 l20 -35 -6 45 c-3 25 -7 51
-10 58 -4 14 32 17 41 2 3 -5 10 -10 15 -10 5 0 0 25 -11 57 -25 73 -25 87 0
73 28 -15 35 -12 20 7 -8 9 -14 19 -14 22 0 3 -3 5 -6 4 -4 -1 -15 7 -24 17
-10 11 -21 20 -24 20 -3 0 -5 -35 -5 -77z"/>
<path d="M9437 4913 c-22 -25 -76 -163 -79 -203 -2 -20 2 -35 10 -37 7 -3 12
-1 10 4 -1 4 2 28 6 52 6 32 11 40 18 30 8 -11 9 -10 4 3 -3 10 1 33 9 52 8
20 15 45 15 57 0 12 8 28 17 35 10 7 15 15 12 18 -3 3 -13 -2 -22 -11z"/>
<path d="M9343 4828 c-19 -25 -26 -41 -15 -34 6 3 13 -2 16 -11 4 -15 4 -14 3
2 -1 11 2 26 7 33 11 18 2 26 -11 10z"/>
<path d="M9426 4724 c-4 -20 -5 -38 -3 -40 3 -3 8 11 11 32 4 20 5 38 3 40 -3
3 -8 -11 -11 -32z"/>
<path d="M9411 4654 c0 -11 3 -14 6 -6 3 7 2 16 -1 19 -3 4 -6 -2 -5 -13z"/>
<path d="M6041 5011 c-7 -13 -16 -19 -20 -14 -4 6 -25 4 -54 -5 l-49 -14 4
-127 c3 -117 5 -131 28 -164 14 -20 33 -37 42 -37 9 0 18 -6 20 -12 3 -7 16
19 30 57 24 66 25 77 19 205 -5 121 -7 132 -20 111z m-21 -338 c-10 -16 -11
-15 -6 7 3 14 7 36 7 50 2 19 3 18 6 -7 2 -18 -1 -41 -7 -50z"/>
<path d="M5930 5010 c-8 -5 -12 -11 -10 -14 3 -2 14 2 24 10 22 15 10 19 -14
4z"/>
<path d="M6206 4942 c-52 -83 -86 -156 -86 -187 0 -38 18 -95 30 -95 12 0 57
67 112 165 63 113 63 109 12 133 l-44 22 -24 -38z"/>
<path d="M6405 4745 c-108 -52 -126 -67 -154 -122 l-21 -42 21 -12 c17 -8 31
-7 68 7 65 24 185 85 193 97 3 6 -3 29 -14 51 -19 38 -20 40 -2 53 32 23 1 12
-91 -32z"/>
<path d="M6060 4608 c-21 -23 -26 -63 -11 -87 6 -9 18 -11 40 -6 50 11 68 66
33 98 -25 22 -37 21 -62 -5z m30 -27 c0 -17 -12 -41 -21 -41 -5 0 -9 11 -9 25
0 16 6 25 15 25 8 0 15 -4 15 -9z"/>
<path d="M6423 4533 c-49 -26 -84 -53 -107 -83 l-35 -45 22 -11 c36 -19 180
-64 211 -67 24 -2 30 3 38 28 5 17 9 42 10 56 1 21 5 26 22 22 48 -9 -32 19
-118 42 l-90 23 62 31 c34 17 62 33 62 36 0 8 -1 7 -77 -32z m74 -189 c-7 -7
-37 7 -37 17 0 6 9 5 21 -1 11 -7 19 -14 16 -16z"/>
<path d="M6210 4523 c-26 -9 -60 -46 -60 -64 0 -22 37 -49 66 -49 31 0 65 45
55 73 -10 26 -41 46 -61 40z m4 -48 c4 -12 -17 -45 -29 -45 -2 0 -3 13 -2 30
2 31 21 41 31 15z"/>
<path d="M5925 4483 c-20 -30 -12 -68 18 -87 15 -9 22 -6 38 14 l21 25 -6 -26
c-6 -29 14 -63 47 -80 19 -10 18 -8 -5 16 -24 24 -27 33 -21 68 5 32 3 38 -7
32 -10 -6 -12 -3 -8 12 14 53 -46 73 -77 26z m32 -19 c3 -8 -2 -23 -11 -32
-15 -15 -16 -14 -16 16 0 33 16 43 27 16z"/>
<path d="M6120 4436 c0 -9 5 -16 10 -16 6 0 10 4 10 9 0 6 -4 13 -10 16 -5 3
-10 -1 -10 -9z"/>
<path d="M6050 4420 c0 -5 5 -10 10 -10 6 0 10 5 10 10 0 6 -4 10 -10 10 -5 0
-10 -4 -10 -10z"/>
<path d="M6086 4417 c3 -10 9 -15 12 -12 3 3 0 11 -7 18 -10 9 -11 8 -5 -6z"/>
<path d="M6031 4394 c0 -11 3 -14 6 -6 3 7 2 16 -1 19 -3 4 -6 -2 -5 -13z"/>
<path d="M6077 4389 c7 -7 15 -10 18 -7 3 3 -2 9 -12 12 -14 6 -15 5 -6 -5z"/>
<path d="M6126 4335 c-19 -19 -11 -74 12 -92 36 -29 82 -3 82 47 0 49 -61 78
-94 45z m39 -45 c0 -16 -6 -26 -17 -28 -13 -2 -16 1 -12 12 3 9 0 23 -7 32
-11 14 -10 15 11 12 19 -2 25 -9 25 -28z"/>
<path d="M5983 4333 c-19 -7 -15 -20 8 -26 15 -4 20 -12 17 -28 -4 -33 -28
-37 -28 -5 0 14 -4 26 -10 26 -15 0 -12 -33 6 -58 18 -27 45 -28 67 -4 22 25
21 44 -4 76 -20 25 -31 29 -56 19z"/>
<path d="M6247 4303 c14 -92 27 -133 55 -177 l32 -49 24 28 c21 25 25 26 38
13 13 -13 13 -19 -7 -52 -17 -29 -19 -40 -10 -49 12 -12 27 1 66 56 13 18 14
18 42 1 20 -13 25 -14 17 -4 -6 8 -41 56 -78 107 -36 50 -72 94 -79 97 -6 4
-1 4 13 2 84 -15 104 -17 90 -8 -13 8 -190 62 -203 62 -2 0 -2 -12 0 -27z"/>
<path d="M6117 4157 c-3 -24 -9 -102 -13 -175 -8 -160 -8 -160 98 -117 13 5
21 1 28 -16 12 -30 1 215 -11 249 -15 38 9 25 47 -28 20 -27 38 -50 41 -50 4
0 -24 51 -54 95 -12 18 -109 85 -124 85 -3 0 -9 -19 -12 -43z m43 -235 c0 -5
-11 -14 -25 -20 -20 -9 -25 -9 -25 2 0 13 14 20 43 25 4 0 7 -3 7 -7z"/>
<path d="M5994 4161 c-51 -36 -81 -73 -140 -168 -26 -43 -54 -86 -63 -96 -12
-15 -13 -17 0 -12 8 3 32 -4 54 -15 21 -11 45 -20 52 -20 7 0 13 -6 13 -12 0
-17 32 36 92 151 26 52 48 86 48 75 0 -10 5 -26 10 -34 7 -10 10 13 10 74 l0
89 -22 -19 c-19 -15 -20 -16 -9 -1 20 26 -1 21 -45 -12z"/>
<path d="M2158 4833 c12 -2 30 -2 40 0 9 3 -1 5 -23 4 -22 0 -30 -2 -17 -4z"/>
<path d="M2253 4823 c9 -2 25 -2 35 0 9 3 1 5 -18 5 -19 0 -27 -2 -17 -5z"/>
<path d="M2648 4793 c18 -2 45 -2 60 0 15 2 0 4 -33 4 -33 0 -45 -2 -27 -4z"/>
<path d="M2833 4783 c15 -2 39 -2 55 0 15 2 2 4 -28 4 -30 0 -43 -2 -27 -4z"/>
<path d="M3168 4773 c6 -2 18 -2 25 0 6 3 1 5 -13 5 -14 0 -19 -2 -12 -5z"/>
<path d="M3368 4763 c28 -2 76 -2 105 0 28 2 5 3 -53 3 -58 0 -81 -1 -52 -3z"/>
<path d="M3573 4763 c15 -2 39 -2 55 0 15 2 2 4 -28 4 -30 0 -43 -2 -27 -4z"/>
<path d="M3173 4743 c9 -2 25 -2 35 0 9 3 1 5 -18 5 -19 0 -27 -2 -17 -5z"/>
<path d="M4771 4867 c2 -1 15 -11 28 -22 l24 -20 -14 23 c-8 12 -20 22 -28 22
-8 0 -12 -1 -10 -3z"/>
<path d="M4948 4863 c7 -3 16 -2 19 1 4 3 -2 6 -13 5 -11 0 -14 -3 -6 -6z"/>
<path d="M4800 4786 c0 -25 4 -35 11 -30 8 5 10 -3 7 -25 -2 -17 -1 -31 4 -31
13 0 6 99 -8 111 -11 9 -14 5 -14 -25z"/>
<path d="M4851 4694 c0 -11 3 -14 6 -6 3 7 2 16 -1 19 -3 4 -6 -2 -5 -13z"/>
<path d="M4928 7893 c6 -2 18 -2 25 0 6 3 1 5 -13 5 -14 0 -19 -2 -12 -5z"/>
<path d="M4820 7875 c-60 -17 -29 -18 40 0 30 7 44 13 30 13 -14 0 -45 -6 -70
-13z"/>
<path d="M7159 7854 c-37 -19 -95 -58 -129 -85 l-61 -50 -212 15 c-538 39
-1318 51 -1772 27 -219 -12 -535 -37 -595 -47 -25 -5 -32 -3 -25 4 11 12 364
132 392 133 10 0 12 3 6 6 -20 7 -274 -72 -443 -140 -305 -121 -806 -384
-1179 -619 -97 -61 -249 -156 -338 -211 -90 -55 -162 -102 -160 -103 3 -2 160
-12 407 -25 113 -6 282 -15 375 -20 342 -20 2156 -49 2210 -35 26 7 27 9 12
23 -11 11 -36 16 -81 17 -62 1 -83 8 -53 19 6 2 9 8 5 12 -5 5 -17 0 -29 -11
-19 -17 -22 -17 -32 -3 -10 13 -47 17 -217 23 -113 3 -261 11 -330 16 -231 19
-355 30 -435 39 -44 5 -84 5 -90 1 -5 -4 -133 -9 -282 -9 -150 -1 -308 -7
-350 -13 -93 -13 -319 -12 -385 3 -25 6 -49 17 -52 25 -3 9 -20 14 -46 14 -25
0 -39 4 -35 10 4 6 -8 10 -29 10 -19 0 -38 -5 -41 -10 -5 -8 -11 -8 -19 -1 -6
6 -42 13 -79 17 l-67 7 37 46 38 46 -45 -34 c-65 -50 -80 -58 -40 -22 48 44
355 250 525 353 202 122 418 238 625 334 166 76 188 84 258 89 42 3 160 12
262 20 537 43 1366 41 2049 -6 l304 -20 36 37 36 37 -41 -31 c-48 -37 -66 -42
-38 -11 28 32 109 89 178 125 33 19 57 34 51 33 -5 0 -40 -16 -76 -35z m-4279
-1017 c0 -2 -10 -12 -22 -23 l-23 -19 19 23 c18 21 26 27 26 19z m1780 -64
c52 -10 94 -22 93 -28 -3 -12 -453 -19 -453 -8 0 5 51 7 112 6 62 -1 107 0
101 3 -21 9 -15 24 10 25 57 3 -33 17 -111 18 -73 1 -89 -2 -143 -30 -33 -16
-65 -29 -71 -27 -6 2 18 18 53 36 64 32 64 32 189 27 69 -2 168 -12 220 -22z
m-1087 -10 c-7 -2 -19 -2 -25 0 -7 3 -2 5 12 5 14 0 19 -2 13 -5z m1850 0
c-13 -2 -35 -2 -50 0 -16 2 -5 4 22 4 28 0 40 -2 28 -4z"/>
<path d="M7099 7783 c-13 -16 -12 -17 4 -4 9 7 17 15 17 17 0 8 -8 3 -21 -13z"/>
<path d="M6940 7645 c-7 -8 -17 -12 -23 -8 -6 4 -7 1 -2 -7 6 -10 4 -12 -11
-6 -10 4 -23 9 -29 10 -5 1 -17 6 -25 11 -13 8 -13 7 -1 -8 16 -20 19 -14 -78
-127 -36 -41 -74 -86 -86 -100 l-20 -25 21 18 c27 22 45 22 37 0 -5 -15 -3
-15 14 2 64 64 225 247 221 251 -3 2 -11 -2 -18 -11z"/>
<path d="M2871 6696 c7 -7 450 -38 456 -33 7 8 -42 14 -212 26 -153 11 -252
14 -244 7z"/>
<path d="M4865 6640 l-130 -6 135 -1 c74 0 198 3 275 6 l140 8 -145 -1 c-80 0
-203 -3 -275 -6z"/>
<path d="M5653 6643 c15 -2 37 -2 50 0 12 2 0 4 -28 4 -27 0 -38 -2 -22 -4z"/>
<path d="M4258 6633 c7 -3 16 -2 19 1 4 3 -2 6 -13 5 -11 0 -14 -3 -6 -6z"/>
<path d="M5528 6633 c12 -2 32 -2 45 0 12 2 2 4 -23 4 -25 0 -35 -2 -22 -4z"/>
<path d="M5343 6623 c15 -2 37 -2 50 0 12 2 0 4 -28 4 -27 0 -38 -2 -22 -4z"/>
<path d="M5038 6613 c7 -3 16 -2 19 1 4 3 -2 6 -13 5 -11 0 -14 -3 -6 -6z"/>
<path d="M5108 6613 c18 -2 45 -2 60 0 15 2 0 4 -33 4 -33 0 -45 -2 -27 -4z"/>
<path d="M4767 6576 c-8 -8 -17 -12 -21 -9 -10 10 -7 -21 4 -37 8 -13 10 -12
10 4 0 14 3 16 13 8 8 -7 18 -7 27 -2 13 8 12 10 -2 10 -10 0 -18 5 -18 11 0
5 5 7 10 4 6 -3 10 -2 10 4 0 18 -18 21 -33 7z"/>
<path d="M4719 6503 c-13 -16 -12 -17 4 -4 9 7 17 15 17 17 0 8 -8 3 -21 -13z"/>
<path d="M9786 6144 c-37 -25 -66 -47 -63 -50 4 -4 118 66 142 87 25 23 -17 3
-79 -37z"/>
<path d="M5108 6092 c-21 -15 -38 -31 -38 -35 0 -5 20 6 45 24 25 18 45 34 45
36 0 8 -18 0 -52 -25z"/>
<path d="M5562 6108 c-24 -5 -42 -12 -39 -14 2 -2 28 1 56 7 29 6 66 9 81 7
16 -2 27 -1 24 4 -7 10 -67 9 -122 -4z"/>
<path d="M4440 5870 c-9 -6 -10 -10 -3 -10 6 0 15 5 18 10 8 12 4 12 -15 0z"/>
<path d="M5205 5840 c-3 -5 1 -10 9 -10 9 0 16 5 16 10 0 6 -4 10 -9 10 -6 0
-13 -4 -16 -10z"/>
<path d="M5170 5772 c0 -12 6 -22 13 -22 8 0 8 -3 -2 -9 -9 -6 -15 -28 -15
-60 -1 -46 1 -51 20 -51 12 0 27 6 33 14 9 11 6 12 -14 8 -24 -4 -36 13 -14
20 19 6 16 85 -4 105 -16 16 -17 16 -17 -5z"/>
<path d="M4516 5765 c4 -8 10 -15 15 -15 4 0 6 7 3 15 -4 8 -10 15 -15 15 -4
0 -6 -7 -3 -15z"/>
<path d="M4978 5723 c7 -3 16 -2 19 1 4 3 -2 6 -13 5 -11 0 -14 -3 -6 -6z"/>
<path d="M4906 5704 c-9 -23 -8 -24 23 -24 33 0 60 -25 44 -41 -16 -16 -60 7
-78 41 -8 16 -18 30 -20 30 -7 0 14 -52 28 -69 9 -12 9 -13 -1 -7 -7 4 -21 24
-32 44 -10 20 -19 32 -20 25 0 -23 23 -63 48 -79 13 -9 21 -11 18 -5 -9 14 0
14 26 0 30 -16 66 -2 88 34 30 49 26 56 -27 55 -27 -1 -58 1 -69 5 -15 5 -23
3 -28 -9z m114 -18 c0 -2 -8 -10 -17 -17 -16 -13 -17 -12 -4 4 13 16 21 21 21
13z"/>
<path d="M4820 5648 c0 -18 -3 -43 -6 -56 -5 -18 -3 -21 10 -16 9 3 23 1 32
-6 12 -10 17 -11 27 -1 9 10 9 12 -3 9 -8 -2 -14 3 -12 10 2 13 -35 92 -43 92
-3 0 -5 -15 -5 -32z"/>
<path d="M5275 5649 c-11 -17 0 -20 21 -4 17 13 17 14 2 15 -9 0 -20 -5 -23
-11z"/>
<path d="M5230 5631 c0 -5 -17 -20 -37 -32 -20 -13 -31 -25 -25 -27 7 -2 27 6
46 17 38 24 54 51 31 51 -8 0 -15 -4 -15 -9z"/>
<path d="M4570 5611 c0 -6 5 -13 10 -16 6 -3 10 1 10 9 0 9 -4 16 -10 16 -5 0
-10 -4 -10 -9z"/>
<path d="M5090 5605 c-7 -9 -8 -15 -2 -15 5 0 12 7 16 15 3 8 4 15 2 15 -2 0
-9 -7 -16 -15z"/>
<path d="M4927 5578 c6 -11 35 -10 53 2 10 6 4 8 -22 7 -20 -1 -34 -5 -31 -9z"/>
<path d="M4539 5561 c9 -6 12 -18 8 -32 -6 -23 -5 -23 8 -5 15 20 5 46 -19 46
-6 0 -5 -4 3 -9z"/>
<path d="M4483 5539 c-13 -5 -23 -13 -23 -19 0 -14 11 -12 34 5 24 18 18 25
-11 14z"/>
<path d="M4577 5526 c-9 -13 -13 -26 -10 -30 13 -13 21 -5 25 24 5 36 5 37
-15 6z"/>
<path d="M4030 5490 c0 -5 5 -10 10 -10 6 0 10 5 10 10 0 6 -4 10 -10 10 -5 0
-10 -4 -10 -10z"/>
</g>
</svg>
